<svg viewBox="0 0 1700 480" xmlns="http://www.w3.org/2000/svg">
  <rect x="0" y="0" width="1700" height="480" fill="#FFFFFF"/>
  <g transform="translate(40,40) scale(0.5)">
<polygon points="400.00,100.00 530.17,129.71 472.89,248.64" fill="#4D8FBB" />
<polygon points="400.00,100.00 472.89,248.64 400.00,232.00" fill="#135079" />
<polygon points="530.17,129.71 634.55,212.95 531.35,295.25" fill="#5988CA" />
<polygon points="530.17,129.71 531.35,295.25 472.89,248.64" fill="#1F4A86" />
<polygon points="634.55,212.95 692.48,333.24 563.79,362.62" fill="#6582D8" />
<polygon points="634.55,212.95 563.79,362.62 531.35,295.25" fill="#2A4494" />
<polygon points="692.48,333.24 692.48,466.76 563.79,437.38" fill="#7E7CDF" />
<polygon points="692.48,333.24 563.79,437.38 563.79,362.62" fill="#413F9A" />
<polygon points="692.48,466.76 634.55,587.05 531.35,504.75" fill="#9776E7" />
<polygon points="692.48,466.76 531.35,504.75 563.79,437.38" fill="#5839A1" />
<polygon points="634.55,587.05 530.17,670.29 472.89,551.36" fill="#AD6FE1" />
<polygon points="634.55,587.05 472.89,551.36 531.35,504.75" fill="#6C339C" />
<polygon points="530.17,670.29 400.00,700.00 400.00,568.00" fill="#C469DB" />
<polygon points="530.17,670.29 400.00,568.00 472.89,551.36" fill="#812D96" />
<polygon points="400.00,700.00 269.83,670.29 327.11,551.36" fill="#D56BC1" />
<polygon points="400.00,700.00 327.11,551.36 400.00,568.00" fill="#912F7F" />
<polygon points="269.83,670.29 165.45,587.05 268.65,504.75" fill="#E76DA8" />
<polygon points="269.83,670.29 268.65,504.75 327.11,551.36" fill="#A13167" />
<polygon points="165.45,587.05 107.52,466.76 236.21,437.38" fill="#EA8D93" />
<polygon points="165.45,587.05 236.21,437.38 268.65,504.75" fill="#A44E54" />
<polygon points="107.52,466.76 107.52,333.24 236.21,362.62" fill="#EDAC7F" />
<polygon points="107.52,466.76 236.21,362.62 236.21,437.38" fill="#A76B42" />
<polygon points="107.52,333.24 165.45,212.95 268.65,295.25" fill="#A5B99A" />
<polygon points="107.52,333.24 268.65,295.25 236.21,362.62" fill="#64775A" />
<polygon points="165.45,212.95 269.83,129.71 327.11,248.64" fill="#5DC5B5" />
<polygon points="165.45,212.95 327.11,248.64 268.65,295.25" fill="#228273" />
<polygon points="269.83,129.71 400.00,100.00 400.00,232.00" fill="#55AAB8" />
<polygon points="269.83,129.71 400.00,232.00 327.11,248.64" fill="#1B6976" />
  </g>
  <text x="480" y="242" font-family="Georgia, 'Times New Roman', serif" font-weight="700" font-size="92" fill="#17181D" letter-spacing="1">OPALCREST</text>
  <text x="483" y="292" font-family="Arial, Helvetica, sans-serif" font-weight="500" font-size="30" fill="#8A8D99" letter-spacing="10">ENTERPRISE</text>
</svg>
