<svg viewBox="0 0 800 800" xmlns="http://www.w3.org/2000/svg">
  <g>
<polygon points="400.00,100.00 530.17,129.71 472.89,248.64" fill="#17181D" fill-opacity="1" />
<polygon points="400.00,100.00 472.89,248.64 400.00,232.00" fill="#17181D" fill-opacity="0.72" />
<polygon points="530.17,129.71 634.55,212.95 531.35,295.25" fill="#17181D" fill-opacity="1" />
<polygon points="530.17,129.71 531.35,295.25 472.89,248.64" fill="#17181D" fill-opacity="0.72" />
<polygon points="634.55,212.95 692.48,333.24 563.79,362.62" fill="#17181D" fill-opacity="1" />
<polygon points="634.55,212.95 563.79,362.62 531.35,295.25" fill="#17181D" fill-opacity="0.72" />
<polygon points="692.48,333.24 692.48,466.76 563.79,437.38" fill="#17181D" fill-opacity="1" />
<polygon points="692.48,333.24 563.79,437.38 563.79,362.62" fill="#17181D" fill-opacity="0.72" />
<polygon points="692.48,466.76 634.55,587.05 531.35,504.75" fill="#17181D" fill-opacity="1" />
<polygon points="692.48,466.76 531.35,504.75 563.79,437.38" fill="#17181D" fill-opacity="0.72" />
<polygon points="634.55,587.05 530.17,670.29 472.89,551.36" fill="#17181D" fill-opacity="1" />
<polygon points="634.55,587.05 472.89,551.36 531.35,504.75" fill="#17181D" fill-opacity="0.72" />
<polygon points="530.17,670.29 400.00,700.00 400.00,568.00" fill="#17181D" fill-opacity="1" />
<polygon points="530.17,670.29 400.00,568.00 472.89,551.36" fill="#17181D" fill-opacity="0.72" />
<polygon points="400.00,700.00 269.83,670.29 327.11,551.36" fill="#17181D" fill-opacity="1" />
<polygon points="400.00,700.00 327.11,551.36 400.00,568.00" fill="#17181D" fill-opacity="0.72" />
<polygon points="269.83,670.29 165.45,587.05 268.65,504.75" fill="#17181D" fill-opacity="1" />
<polygon points="269.83,670.29 268.65,504.75 327.11,551.36" fill="#17181D" fill-opacity="0.72" />
<polygon points="165.45,587.05 107.52,466.76 236.21,437.38" fill="#17181D" fill-opacity="1" />
<polygon points="165.45,587.05 236.21,437.38 268.65,504.75" fill="#17181D" fill-opacity="0.72" />
<polygon points="107.52,466.76 107.52,333.24 236.21,362.62" fill="#17181D" fill-opacity="1" />
<polygon points="107.52,466.76 236.21,362.62 236.21,437.38" fill="#17181D" fill-opacity="0.72" />
<polygon points="107.52,333.24 165.45,212.95 268.65,295.25" fill="#17181D" fill-opacity="1" />
<polygon points="107.52,333.24 268.65,295.25 236.21,362.62" fill="#17181D" fill-opacity="0.72" />
<polygon points="165.45,212.95 269.83,129.71 327.11,248.64" fill="#17181D" fill-opacity="1" />
<polygon points="165.45,212.95 327.11,248.64 268.65,295.25" fill="#17181D" fill-opacity="0.72" />
<polygon points="269.83,129.71 400.00,100.00 400.00,232.00" fill="#17181D" fill-opacity="1" />
<polygon points="269.83,129.71 400.00,232.00 327.11,248.64" fill="#17181D" fill-opacity="0.72" />
  </g>
</svg>
